<?xml version="1.0" encoding="UTF-8" standalone="no"?>
<!-- Created with Inkscape (http://www.inkscape.org/) -->

<svg
   xmlns:dc="http://purl.org/dc/elements/1.1/"
   xmlns:cc="http://creativecommons.org/ns#"
   xmlns:rdf="http://www.w3.org/1999/02/22-rdf-syntax-ns#"
   xmlns:svg="http://www.w3.org/2000/svg"
   xmlns="http://www.w3.org/2000/svg"
   xmlns:sodipodi="http://sodipodi.sourceforge.net/DTD/sodipodi-0.dtd"
   xmlns:inkscape="http://www.inkscape.org/namespaces/inkscape"
   width="139.62439mm"
   height="147.10837mm"
   viewBox="0 0 139.62439 147.10837"
   version="1.1"
   id="svg1476"
   inkscape:version="0.92.4 (5da689c313, 2019-01-14)"
   sodipodi:docname="event button.svg">
  <defs
     id="defs1470" />
  <sodipodi:namedview
     id="base"
     pagecolor="#ffffff"
     bordercolor="#666666"
     borderopacity="1.0"
     inkscape:pageopacity="0.0"
     inkscape:pageshadow="2"
     inkscape:zoom="0.7"
     inkscape:cx="400.3145"
     inkscape:cy="482.83457"
     inkscape:document-units="mm"
     inkscape:current-layer="layer1"
     showgrid="false"
     inkscape:snap-global="false"
     showguides="false"
     inkscape:window-width="1920"
     inkscape:window-height="986"
     inkscape:window-x="-11"
     inkscape:window-y="-11"
     inkscape:window-maximized="1" />
  <metadata
     id="metadata1473">
    <rdf:RDF>
      <cc:Work
         rdf:about="">
        <dc:format>image/svg+xml</dc:format>
        <dc:type
           rdf:resource="http://purl.org/dc/dcmitype/StillImage" />
        <dc:title></dc:title>
      </cc:Work>
    </rdf:RDF>
  </metadata>
  <g
     inkscape:label="Layer 1"
     inkscape:groupmode="layer"
     id="layer1"
     transform="translate(-34.773815,-44.889874)">
    <rect
       ry="10.247666"
       style="opacity:1;fill:#0066ff;fill-opacity:1;stroke:none;stroke-width:0.29554871;stroke-opacity:0"
       id="rect2083"
       width="133.04761"
       height="130.77979"
       x="41.35059"
       y="61.218452" />
    <rect
       y="83.443459"
       x="49.136902"
       height="101.29762"
       width="117.92856"
       id="rect2023"
       style="opacity:1;fill:#ffffff;fill-opacity:1;stroke:none;stroke-width:0.24488626;stroke-opacity:0"
       ry="0" />
    <rect
       style="opacity:1;fill:#0066ff;fill-opacity:1;stroke:none;stroke-width:0.26458332;stroke-opacity:0"
       id="rect2025"
       width="22.300594"
       height="20.032738"
       x="55.940472"
       y="92.136902" />
    <rect
       y="92.136902"
       x="83.457161"
       height="20.032738"
       width="22.300594"
       id="rect2027"
       style="opacity:1;fill:#0066ff;fill-opacity:1;stroke:none;stroke-width:0.26458332;stroke-opacity:0" />
    <rect
       style="opacity:1;fill:#0066ff;fill-opacity:1;stroke:none;stroke-width:0.26458332;stroke-opacity:0"
       id="rect2029"
       width="22.300594"
       height="20.032738"
       x="113.0905"
       y="92.136902" />
    <rect
       y="92.136902"
       x="141.66531"
       height="20.032738"
       width="22.300594"
       id="rect2031"
       style="opacity:1;fill:#0066ff;fill-opacity:1;stroke:none;stroke-width:0.26458332;stroke-opacity:0" />
    <rect
       y="120.71188"
       x="55.940472"
       height="20.032738"
       width="22.300594"
       id="rect2033"
       style="opacity:1;fill:#0066ff;fill-opacity:1;stroke:none;stroke-width:0.26458332;stroke-opacity:0" />
    <rect
       style="opacity:1;fill:#0066ff;fill-opacity:1;stroke:none;stroke-width:0.26458332;stroke-opacity:0"
       id="rect2035"
       width="22.300594"
       height="20.032738"
       x="83.986328"
       y="120.71188" />
    <rect
       y="120.71188"
       x="113.61967"
       height="20.032738"
       width="22.300594"
       id="rect2037"
       style="opacity:1;fill:#0066ff;fill-opacity:1;stroke:none;stroke-width:0.26458332;stroke-opacity:0" />
    <rect
       style="opacity:1;fill:#0066ff;fill-opacity:1;stroke:none;stroke-width:0.26458332;stroke-opacity:0"
       id="rect2039"
       width="22.300594"
       height="20.032738"
       x="141.66531"
       y="120.71188" />
    <rect
       y="149.28661"
       x="141.66531"
       height="20.032738"
       width="22.300594"
       id="rect2041"
       style="opacity:1;fill:#0066ff;fill-opacity:1;stroke:none;stroke-width:0.26458332;stroke-opacity:0" />
    <rect
       style="opacity:1;fill:#0066ff;fill-opacity:1;stroke:none;stroke-width:0.26458332;stroke-opacity:0"
       id="rect2043"
       width="22.300594"
       height="20.032738"
       x="113.61967"
       y="149.28661" />
    <rect
       y="149.28661"
       x="84.515488"
       height="20.032738"
       width="22.300594"
       id="rect2045"
       style="opacity:1;fill:#0066ff;fill-opacity:1;stroke:none;stroke-width:0.26458332;stroke-opacity:0" />
    <rect
       style="opacity:1;fill:#0066ff;fill-opacity:1;stroke:none;stroke-width:0.26458332;stroke-opacity:0"
       id="rect2047"
       width="22.300594"
       height="20.032738"
       x="55.94046"
       y="149.28661" />
    <rect
       style="opacity:1;fill:#0066ff;fill-opacity:1;stroke:none;stroke-width:0.26458332;stroke-opacity:0"
       id="rect2099"
       width="13.607142"
       height="21.544643"
       x="61.988094"
       y="49.501179" />
    <rect
       y="48.972012"
       x="138.18796"
       height="21.544643"
       width="13.607142"
       id="rect2101"
       style="opacity:1;fill:#0066ff;fill-opacity:1;stroke:none;stroke-width:0.26458332;stroke-opacity:0" />
    <path
       style="opacity:1;fill:#ffffff;fill-opacity:1;stroke:none;stroke-width:0.28182971;stroke-opacity:0"
       id="path2103"
       sodipodi:type="arc"
       sodipodi:cx="75.784233"
       sodipodi:cy="89.491066"
       sodipodi:rx="41.010418"
       sodipodi:ry="44.601192"
       sodipodi:start="6.208939"
       sodipodi:end="6.1813551"
       sodipodi:open="true"
       d="M 116.68167,86.182634 A 41.010418,44.601192 0 0 1 79.108262,133.94551 41.010418,44.601192 0 0 1 34.932643,93.412607 41.010418,44.601192 0 0 1 71.896786,45.090707 41.010418,44.601192 0 0 1 116.58221,84.957162" />
    <path
       d="M 112.91128,84.9511 A 37.608631,40.82143 0 0 1 78.45456,128.66627 37.608631,40.82143 0 0 1 37.94328,91.568363 37.608631,40.82143 0 0 1 71.841272,47.34154 37.608631,40.82143 0 0 1 112.82007,83.829482"
       sodipodi:open="true"
       sodipodi:end="6.1813551"
       sodipodi:start="6.208939"
       sodipodi:ry="40.82143"
       sodipodi:rx="37.608631"
       sodipodi:cy="87.979156"
       sodipodi:cx="75.406258"
       sodipodi:type="arc"
       id="path2109"
       style="opacity:1;fill:#0066ff;fill-opacity:1;stroke:none;stroke-width:0.25819886;stroke-opacity:0" />
    <path
       style="opacity:1;fill:#ffffff;fill-opacity:1;stroke:none;stroke-width:0.15815172;stroke-opacity:0"
       id="path2111"
       sodipodi:type="arc"
       sodipodi:cx="75.784218"
       sodipodi:cy="88.546112"
       sodipodi:rx="9.260416"
       sodipodi:ry="9.260417"
       sodipodi:start="6.208939"
       sodipodi:end="6.1813628"
       sodipodi:open="true"
       d="m 85.019122,87.859192 a 9.260416,9.260417 0 0 1 -8.484335,9.91687 9.260416,9.260417 0 0 1 -9.975124,-8.415767 9.260416,9.260417 0 0 1 8.346798,-10.032907 9.260416,9.260417 0 0 1 10.090209,8.277434" />
    <path
       style="opacity:1;fill:#ffffff;fill-opacity:1;stroke:none;stroke-width:0.24265546;stroke-opacity:0"
       id="path2113"
       sodipodi:type="arc"
       sodipodi:cx="116.91298"
       sodipodi:cy="43.953976"
       sodipodi:rx="3.0566139"
       sodipodi:ry="18.713303"
       sodipodi:start="6.208939"
       sodipodi:end="6.1813628"
       d="m 119.96117,42.565858 a 3.0566139,18.713303 0 0 1 -2.80045,20.039852 3.0566139,18.713303 0 0 1 -3.29252,-17.006447 3.0566139,18.713303 0 0 1 2.75506,-20.274337 3.0566139,18.713303 0 0 1 3.3305,16.726905"
       transform="matrix(0.93843042,0.34546831,-0.59566774,0.80323094,0,0)"
       sodipodi:open="true" />
    <path
       sodipodi:open="true"
       transform="matrix(0.97483238,-0.22293909,0.05913921,0.99824975,0,0)"
       d="m 74.279814,117.19537 a 3.5217781,12.69295 0 0 1 -3.226631,13.59273 3.5217781,12.69295 0 0 1 -3.793585,-11.53522 3.5217781,12.69295 0 0 1 3.174325,-13.75177 3.5217781,12.69295 0 0 1 3.837353,11.3456"
       sodipodi:end="6.1813628"
       sodipodi:start="6.208939"
       sodipodi:ry="12.69295"
       sodipodi:rx="3.5217781"
       sodipodi:cy="118.13691"
       sodipodi:cx="70.767738"
       sodipodi:type="arc"
       id="path2115"
       style="opacity:1;fill:#ffffff;fill-opacity:1;stroke:none;stroke-width:0.19702436;stroke-opacity:0" />
  </g>
</svg>
