<?xml version="1.0" encoding="UTF-8" standalone="no"?>
<!-- Created with Inkscape (http://www.inkscape.org/) -->

<svg xmlns:dc="http://purl.org/dc/elements/1.1/" xmlns:cc="http://creativecommons.org/ns#" xmlns:rdf="http://www.w3.org/1999/02/22-rdf-syntax-ns#"
    xmlns="http://www.w3.org/2000/svg" xmlns:sodipodi="http://sodipodi.sourceforge.net/DTD/sodipodi-0.dtd"
    xmlns:inkscape="http://www.inkscape.org/namespaces/inkscape" width="24.292492" height="19.891003"
    viewBox="0 0 6.4273878 5.2628273" version="1.1" id="svg8" inkscape:version="0.92.4 (5da689c313, 2019-01-14)"
    sodipodi:docname="home buttonb.svg">
  <defs
     id="defs2" />
  <sodipodi:namedview
     id="base"
     pagecolor="#ffffff"
     bordercolor="#666666"
     borderopacity="1.0"
     inkscape:pageopacity="0.0"
     inkscape:pageshadow="2"
     inkscape:zoom="23.84375"
     inkscape:cx="14.588386"
     inkscape:cy="11.37334"
     inkscape:document-units="px"
     inkscape:current-layer="layer1"
     showgrid="true"
     units="px"
     inkscape:snap-global="false"
     inkscape:window-width="1920"
     inkscape:window-height="1017"
     inkscape:window-x="1912"
     inkscape:window-y="-8"
     inkscape:window-maximized="1">
    <inkscape:grid
       type="xygrid"
       id="grid815"
       originx="-0.80162831"
       originy="-1.9307721" />
  </sodipodi:namedview>
  <metadata
     id="metadata5">
    <rdf:RDF>
      <cc:Work
         rdf:about="">
        <dc:format>image/svg+xml</dc:format>
        <dc:type
           rdf:resource="http://purl.org/dc/dcmitype/StillImage" />
        <dc:title />
      </cc:Work>
    </rdf:RDF>
  </metadata>
  <g
     inkscape:label="Layer 1"
     inkscape:groupmode="layer"
     id="layer1"
     transform="translate(-0.80162832,-289.8064)">
    <rect
       style="opacity:1;fill:#399bff;fill-opacity:1;stroke:none;stroke-width:0.18644808;stroke-opacity:0"
       id="rect817"
       width="5.4866686"
       height="3.1932845"
       x="1.2149446"
       y="291.87595" />
    <path
       style="opacity:1;fill:#399bff;fill-opacity:1;stroke:none;stroke-width:0.36432323;stroke-opacity:0"
       d="m 1.1896574,291.87918 c 2.8962636,-1.71197 2.8962374,-1.72391 2.8962374,-1.72391 l 2.6452876,1.72739"
       id="path827"
       inkscape:connector-curvature="0"
       sodipodi:nodetypes="ccc" />
    <rect
       style="opacity:1;fill:#fef8ff;fill-opacity:1;stroke:none;stroke-width:0.50998557;stroke-opacity:0"
       id="rect829"
       width="1.9163073"
       height="2.2158637"
       x="3.0001252"
       y="292.85336" />
    <rect
       style="opacity:1;fill:#399bff;fill-opacity:1;stroke:none;stroke-width:0.364039;stroke-opacity:0"
       id="rect831"
       width="0.3259784"
       height="3.5868676"
       x="275.67853"
       y="248.3269"
       ry="0.17305061"
       transform="matrix(0.79633391,0.60485725,-0.86859825,0.49551698,0,0)" />
    <rect
       transform="matrix(0.86808583,-0.49641413,0.83606429,0.54863148,0,0)"
       ry="0.16806406"
       y="284.69592"
       x="-269.47174"
       height="3.4835098"
       width="0.34645149"
       id="rect833"
       style="opacity:1;fill:#399bff;fill-opacity:1;stroke:none;stroke-width:0.36984995;stroke-opacity:0" />
    <path
       style="opacity:1;fill:#399bff;fill-opacity:1;stroke:none;stroke-width:0.33124807;stroke-opacity:0"
       d="m 3.6741831,290.05079 c 0.078783,-0.031 0.089055,-0.19707 0.1347439,-0.19414 0.0057,3.7e-4 0.01258,0.004 0.017143,10e-4 0.00456,-0.003 -0.00337,-0.009 0.00178,-0.0111 0.030371,-0.011 0.044096,-0.009 0.070304,-0.007 0.0057,3.7e-4 0.011561,0.002 0.017143,0.001 0.01265,-0.002 0.023365,-0.007 0.036037,-0.009 0.011181,-10e-4 0.025322,0.008 0.034266,0.002 0.00456,-0.003 -0.00282,-0.008 0.00178,-0.0112 0.00895,-0.005 0.023528,0.004 0.034266,0.002 0.00757,-0.002 0.011319,-0.008 0.018914,-0.01 0.014395,-0.003 0.037,0.007 0.051402,0.003 0.00757,-0.002 0.010852,-0.008 0.018914,-0.01 0.016935,-0.003 0.034266,0.002 0.0514,0.003 l 0.085668,0.005 0.1027986,0.007 0.017143,0.001 c 0.0057,3.6e-4 0.01239,-0.001 0.017143,10e-4 0.00439,0.001 0.04428,0.0336 0.046067,0.0368 0.00406,0.007 -0.010783,0.0166 -0.00354,0.0223 -0.00392,0.0314 0.038109,0.005 0.049629,0.0144 0.00721,0.005 -0.00603,0.015 -0.00354,0.0223 0.00282,0.008 0.010801,0.0153 0.0136,0.0234 0.00259,0.007 -0.012961,0.0524 -0.00888,0.0557 0.031764,0.0255 0.00422,-0.0353 0.032495,0.0133 0.00726,0.0125 -0.010887,0.01 -0.00354,0.0223 0.00273,0.005 0.012494,0.008 0.015363,0.0122 0.00206,0.003 -0.00525,0.008 -0.00178,0.0111 0.020481,0.0163 -0.6551985,-0.0158 -0.659941,0.014"
       id="path849"
       inkscape:connector-curvature="0"
       sodipodi:nodetypes="csccsccccccccsccscccccccccccc" />
    <rect
       style="opacity:1;fill:#399bff;fill-opacity:1;stroke:none;stroke-width:0.36432323;stroke-opacity:0"
       id="rect853"
       width="0.46021858"
       height="0.58440357"
       x="2.2735906"
       y="290.07742" />
  </g>
</svg>
