<?xml version="1.0" encoding="UTF-8" standalone="no"?>
<!-- Created with Inkscape (http://www.inkscape.org/) -->

<svg
   xmlns:dc="http://purl.org/dc/elements/1.1/"
   xmlns:cc="http://creativecommons.org/ns#"
   xmlns:rdf="http://www.w3.org/1999/02/22-rdf-syntax-ns#"
   xmlns:svg="http://www.w3.org/2000/svg"
   xmlns="http://www.w3.org/2000/svg"
   xmlns:sodipodi="http://sodipodi.sourceforge.net/DTD/sodipodi-0.dtd"
   xmlns:inkscape="http://www.inkscape.org/namespaces/inkscape"
   width="14.055078"
   height="18.047037"
   viewBox="0 0 3.7187389 4.7749448"
   version="1.1"
   id="svg8"
   inkscape:version="0.92.4 (5da689c313, 2019-01-14)"
   sodipodi:docname="home buttonb.svg">
  <defs
     id="defs2" />
  <sodipodi:namedview
     id="base"
     pagecolor="#ffffff"
     bordercolor="#666666"
     borderopacity="1.0"
     inkscape:pageopacity="0.0"
     inkscape:pageshadow="2"
     inkscape:zoom="23.84375"
     inkscape:cx="7.7015515"
     inkscape:cy="11.10096"
     inkscape:document-units="px"
     inkscape:current-layer="layer1"
     showgrid="true"
     units="px"
     inkscape:snap-global="false"
     inkscape:window-width="1920"
     inkscape:window-height="986"
     inkscape:window-x="-11"
     inkscape:window-y="-11"
     inkscape:window-maximized="1">
    <inkscape:grid
       type="xygrid"
       id="grid815"
       originx="-2.155333"
       originy="-2.1839279" />
  </sodipodi:namedview>
  <metadata
     id="metadata5">
    <rdf:RDF>
      <cc:Work
         rdf:about="">
        <dc:format>image/svg+xml</dc:format>
        <dc:type
           rdf:resource="http://purl.org/dc/dcmitype/StillImage" />
        <dc:title></dc:title>
      </cc:Work>
    </rdf:RDF>
  </metadata>
  <g
     inkscape:label="Layer 1"
     inkscape:groupmode="layer"
     id="layer1"
     transform="translate(-2.155333,-290.04113)">
    <rect
       style="opacity:1;fill:#00ccff;fill-opacity:1;stroke:none;stroke-width:0.13540463;stroke-opacity:0"
       id="rect817"
       width="3.1749997"
       height="2.9104078"
       x="2.4017091"
       y="291.90567" />
    <path
       style="opacity:1;fill:#00ccff;fill-opacity:1;stroke:none;stroke-width:0.26458332;stroke-opacity:0"
       d="m 2.3786873,291.91529 c 1.6784622,-1.55373 1.6784643,-1.56461 1.6784643,-1.56461 l 1.5282645,1.58038"
       id="path827"
       inkscape:connector-curvature="0"
       sodipodi:nodetypes="ccc" />
    <rect
       style="opacity:1;fill:#ffffff;fill-opacity:1;stroke:none;stroke-width:0.31218106;stroke-opacity:0"
       id="rect829"
       width="0.78785491"
       height="2.0195718"
       x="3.6729572"
       y="292.81662" />
    <rect
       style="opacity:1;fill:#00ccff;fill-opacity:1;stroke:none;stroke-width:0.25365892;stroke-opacity:0"
       id="rect831"
       width="0.23421933"
       height="2.4237392"
       x="218.49164"
       y="183.12753"
       ry="0.11693478"
       transform="matrix(0.64135171,0.76724702,-0.74384657,0.66835042,0,0)" />
    <rect
       transform="matrix(0.74304881,-0.66923722,0.69535372,0.71866766,0,0)"
       ry="0.11693478"
       y="218.4785"
       x="-198.98567"
       height="2.4237392"
       width="0.23421933"
       id="rect833"
       style="opacity:1;fill:#00ccff;fill-opacity:1;stroke:none;stroke-width:0.25365892;stroke-opacity:0" />
    <path
       style="opacity:1;fill:#00ccff;fill-opacity:1;stroke:none;stroke-width:0.24056308;stroke-opacity:0"
       d="m 3.8176525,290.26232 c 0.04559,-0.0283 0.051534,-0.17961 0.077973,-0.17694 0.0033,3.3e-4 0.00728,0.004 0.00992,0.001 0.00264,-0.003 -0.00195,-0.008 0.00103,-0.0101 0.017575,-0.01 0.025517,-0.008 0.040683,-0.006 0.0033,3.4e-4 0.00669,0.002 0.00992,10e-4 0.00732,-0.002 0.013521,-0.006 0.020854,-0.008 0.00647,-0.001 0.014653,0.007 0.019829,0.002 0.00264,-0.003 -0.00163,-0.007 0.00103,-0.0102 0.00518,-0.005 0.013615,0.004 0.019829,0.002 0.00438,-0.002 0.00655,-0.007 0.010945,-0.009 0.00833,-0.003 0.021411,0.006 0.029745,0.003 0.00438,-0.002 0.00628,-0.007 0.010945,-0.009 0.0098,-0.003 0.019829,0.002 0.029744,0.003 l 0.049574,0.005 0.059487,0.006 0.00992,10e-4 c 0.0033,3.3e-4 0.00717,-10e-4 0.00992,0.001 0.00254,10e-4 0.025624,0.0306 0.026658,0.0335 0.00235,0.006 -0.00624,0.0151 -0.00205,0.0203 -0.00227,0.0286 0.022053,0.005 0.028719,0.0131 0.00417,0.005 -0.00349,0.0137 -0.00205,0.0203 0.00163,0.007 0.00625,0.0139 0.00787,0.0213 0.0015,0.006 -0.0075,0.0478 -0.00514,0.0508 0.018381,0.0232 0.00244,-0.0322 0.018804,0.0121 0.0042,0.0114 -0.0063,0.009 -0.00205,0.0203 0.00158,0.005 0.00723,0.007 0.00889,0.0111 0.00119,0.003 -0.00304,0.007 -0.00103,0.0101 0.011852,0.0149 -0.3791472,-0.0144 -0.3818916,0.0128"
       id="path849"
       inkscape:connector-curvature="0"
       sodipodi:nodetypes="csccsccccccccsccscccccccccccc" />
    <rect
       style="opacity:1;fill:#00ccff;fill-opacity:1;stroke:none;stroke-width:0.26458332;stroke-opacity:0"
       id="rect853"
       width="0.26631713"
       height="0.53263426"
       x="3.0071642"
       y="290.28659" />
  </g>
</svg>
