<?xml version="1.0" encoding="UTF-8" standalone="no"?>
<!-- Created with Inkscape (http://www.inkscape.org/) -->

<svg
   xmlns:dc="http://purl.org/dc/elements/1.1/"
   xmlns:cc="http://creativecommons.org/ns#"
   xmlns:rdf="http://www.w3.org/1999/02/22-rdf-syntax-ns#"
   xmlns:svg="http://www.w3.org/2000/svg"
   xmlns="http://www.w3.org/2000/svg"
   xmlns:sodipodi="http://sodipodi.sourceforge.net/DTD/sodipodi-0.dtd"
   xmlns:inkscape="http://www.inkscape.org/namespaces/inkscape"
   width="105.13721mm"
   height="100.91963mm"
   viewBox="0 0 105.13721 100.91963"
   version="1.1"
   id="svg2123"
   sodipodi:docname="profile pic.svg"
   inkscape:version="0.92.4 (5da689c313, 2019-01-14)">
  <defs
     id="defs2117" />
  <sodipodi:namedview
     id="base"
     pagecolor="#ffffff"
     bordercolor="#666666"
     borderopacity="1.0"
     inkscape:pageopacity="0.0"
     inkscape:pageshadow="2"
     inkscape:zoom="0.7"
     inkscape:cx="-251.58508"
     inkscape:cy="177.21273"
     inkscape:document-units="mm"
     inkscape:current-layer="layer1"
     showgrid="false"
     inkscape:snap-global="false"
     inkscape:window-width="1920"
     inkscape:window-height="986"
     inkscape:window-x="-11"
     inkscape:window-y="-11"
     inkscape:window-maximized="1" />
  <metadata
     id="metadata2120">
    <rdf:RDF>
      <cc:Work
         rdf:about="">
        <dc:format>image/svg+xml</dc:format>
        <dc:type
           rdf:resource="http://purl.org/dc/dcmitype/StillImage" />
        <dc:title></dc:title>
      </cc:Work>
    </rdf:RDF>
  </metadata>
  <g
     inkscape:label="Layer 1"
     inkscape:groupmode="layer"
     id="layer1"
     transform="translate(-57.452435,-95.538704)">
    <path
       d="M 162.53632,151.60481 A 52.705097,50.459816 0 0 1 107.09999,196.37336 52.705097,50.459816 0 0 1 57.453031,145.75855 52.705097,50.459816 0 0 1 107.60058,95.598121 52.705097,50.459816 0 0 1 162.58965,140.86945"
       sodipodi:end="6.1813628"
       sodipodi:start="0.11133385"
       sodipodi:ry="50.459816"
       sodipodi:rx="52.705097"
       sodipodi:cy="145.99852"
       sodipodi:cx="110.15753"
       sodipodi:type="arc"
       id="path2734"
       style="opacity:1;fill:#0066ff;fill-opacity:1;stroke:none;stroke-width:0.21687441;stroke-opacity:0"
       sodipodi:open="true" />
    <path
       style="opacity:1;fill:#ffffff;fill-opacity:1;stroke:none;stroke-width:0.18627913;stroke-opacity:0"
       id="path2718"
       sodipodi:type="arc"
       sodipodi:cx="110.36905"
       sodipodi:cy="144.86462"
       sodipodi:rx="45.735119"
       sodipodi:ry="42.900295"
       sodipodi:start="6.2111676"
       sodipodi:end="6.1813628"
       sodipodi:open="true"
       d="m 155.98562,141.77771 a 45.735119,42.900295 0 0 1 -41.98588,45.85182 45.735119,42.900295 0 0 1 -49.193152,-39.0407 45.735119,42.900295 0 0 1 41.252782,-46.43361 45.735119,42.900295 0 0 1 49.80792,38.34873" />
    <path
       style="opacity:1;fill:#0066ff;fill-opacity:1;stroke:none;stroke-width:0.17733647;stroke-opacity:0"
       id="path2720"
       sodipodi:type="arc"
       sodipodi:cx="110.08734"
       sodipodi:cy="130.69044"
       sodipodi:rx="15.290863"
       sodipodi:ry="14.363096"
       sodipodi:start="0.11133385"
       sodipodi:end="6.1813628"
       sodipodi:open="true"
       d="m 125.28354,132.28624 a 15.290863,14.363096 0 0 1 -16.08325,12.74311 15.290863,14.363096 0 0 1 -14.403639,-14.40721 15.290863,14.363096 0 0 1 14.548859,-14.27788 15.290863,14.363096 0 0 1 15.9535,12.88622" />
    <path
       style="opacity:1;fill:#0066ff;fill-opacity:1;stroke:none;stroke-width:0.28408402;stroke-opacity:0"
       id="path2724"
       sodipodi:type="arc"
       sodipodi:cx="117.04576"
       sodipodi:cy="172.31676"
       sodipodi:rx="26.06476"
       sodipodi:ry="40.605438"
       sodipodi:start="3.0172438"
       sodipodi:end="6.2377306"
       d="m 91.182256,177.35299 a 26.06476,40.605438 0 0 1 10.683994,-38.04516 26.06476,40.605438 0 0 1 26.56009,-3.52146 26.06476,40.605438 0 0 1 14.65726,34.68531 l -26.03784,1.84508 z"
       transform="matrix(0.99079008,0.13540688,-0.03092948,0.99952157,0,0)" />
  </g>
</svg>
