<?xml version="1.0" encoding="UTF-8" standalone="no"?>
<svg xmlns:dc="http://purl.org/dc/elements/1.1/" xmlns:cc="http://creativecommons.org/ns#" xmlns:rdf="http://www.w3.org/1999/02/22-rdf-syntax-ns#"
    xmlns="http://www.w3.org/2000/svg" xmlns:sodipodi="http://sodipodi.sourceforge.net/DTD/sodipodi-0.dtd"
    xmlns:inkscape="http://www.inkscape.org/namespaces/inkscape" height="512pt" viewBox="0 0 512 512"
    width="512pt" version="1.1" id="svg6" sodipodi:docname="home.svg" inkscape:version="0.92.4 (5da689c313, 2019-01-14)">
  <metadata
     id="metadata12">
    <rdf:RDF>
      <cc:Work
         rdf:about="">
        <dc:format>image/svg+xml</dc:format>
        <dc:type
           rdf:resource="http://purl.org/dc/dcmitype/StillImage" />
        <dc:title></dc:title>
      </cc:Work>
    </rdf:RDF>
  </metadata>
  <defs
     id="defs10" />
  <sodipodi:namedview
     pagecolor="#ffffff"
     bordercolor="#666666"
     borderopacity="1"
     objecttolerance="10"
     gridtolerance="10"
     guidetolerance="10"
     inkscape:pageopacity="0"
     inkscape:pageshadow="2"
     inkscape:window-width="1920"
     inkscape:window-height="1017"
     id="namedview8"
     showgrid="false"
     inkscape:zoom="0.34570313"
     inkscape:cx="-18.80226"
     inkscape:cy="341.33333"
     inkscape:window-x="-8"
     inkscape:window-y="-8"
     inkscape:window-maximized="1"
     inkscape:current-layer="svg6" />
  <path
     d="m498.195312 222.695312c-.011718-.011718-.023437-.023437-.035156-.035156l-208.855468-208.847656c-8.902344-8.90625-20.738282-13.8125-33.328126-13.8125-12.589843 0-24.425781 4.902344-33.332031 13.808594l-208.746093 208.742187c-.070313.070313-.144532.144531-.210938.214844-18.28125 18.386719-18.25 48.21875.09375 66.558594 8.375 8.382812 19.4375 13.238281 31.269531 13.746093.480469.046876.96875.070313 1.457031.070313h8.320313v153.699219c0 30.414062 24.75 55.160156 55.167969 55.160156h81.710937c8.285157 0 15-6.714844 15-15v-120.5c0-13.878906 11.292969-25.167969 25.171875-25.167969h48.195313c13.878906 0 25.167969 11.289063 25.167969 25.167969v120.5c0 8.285156 6.71875 15 15 15h81.710937c30.421875 0 55.167969-24.746094 55.167969-55.160156v-153.699219h7.71875c12.585937 0 24.421875-4.902344 33.332031-13.808594 18.359375-18.371093 18.371094-48.253906.023437-66.636719zm0 0"
     fill="#1de8f1"
     id="path2"
     style="fill:#0fa9df;fill-opacity:1" />
  <path
     d="m498.195312 222.695312c-.011718-.011718-.023437-.023437-.035156-.035156l-208.855468-208.847656c-8.902344-8.90625-20.738282-13.8125-33.328126-13.8125h-.003906v351.332031h24.101563c13.878906 0 25.167969 11.289063 25.167969 25.167969v120.5c0 8.285156 6.71875 15 15 15h81.710937c30.421875 0 55.167969-24.746094 55.167969-55.160156v-153.699219h7.71875c12.585937 0 24.421875-4.902344 33.332031-13.808594 18.359375-18.371093 18.371094-48.253906.023437-66.636719zm0 0"
     fill="#00c7ce"
     id="path4"
     style="fill:#0f8cdf;fill-opacity:1" />
</svg>
